<?xml version="1.0" encoding="UTF-8" standalone="no"?>
<!DOCTYPE svg PUBLIC "-//W3C//DTD SVG 1.1//EN" "http://www.w3.org/Graphics/SVG/1.1/DTD/svg11.dtd">
<svg width="100%" height="100%" viewBox="0 0 320 320" version="1.1" xmlns="http://www.w3.org/2000/svg" xmlns:xlink="http://www.w3.org/1999/xlink" xml:space="preserve" xmlns:serif="http://www.serif.com/" style="fill-rule:evenodd;clip-rule:evenodd;stroke-linecap:round;stroke-linejoin:round;stroke-miterlimit:1.5;">
    <g transform="matrix(1.00203,0,0,1,-0.649087,-1.47499)">
        <rect x="0.648" y="0" width="319.352" height="320" style="fill:rgb(88,154,255);"/>
    </g>
    <path d="M230.974,88.177C230.974,88.889 230.456,90.25 230.456,90.25C230.456,90.25 230.946,88.723 231.492,88.177C233.133,86.536 236.07,86.19 237.711,84.549C240.524,81.736 241.161,75.917 243.929,73.148C245.526,71.552 245.156,67.776 246.521,66.412C247.155,65.777 249.63,63.151 249.63,62.266" style="fill:none;stroke:rgb(235,193,0);stroke-width:10.3px;"/>
    <path d="M220.091,14.072C222.437,14.072 224.194,15.108 226.828,15.108" style="fill:none;stroke:rgb(235,193,0);stroke-width:10.3px;"/>
    <path d="M244.448,16.663C244.448,18.529 235.205,17.699 233.047,17.699C225.018,17.699 221.375,16.392 217.5,12.517C216.518,11.534 210.245,11.617 210.245,9.926" style="fill:none;stroke:rgb(235,193,0);stroke-width:10.3px;"/>
    <path d="M275.023,64.339C265.197,64.339 263.625,57.605 258.958,52.938C257.909,51.89 257.844,49.234 256.885,48.274C255.676,47.065 257.576,42.746 256.367,41.537C255.762,40.933 256.453,39.032 255.848,38.428C255.481,38.061 252.678,32.788 254.294,31.173C255.664,29.803 255.979,25.86 257.403,24.436C260.336,21.504 262.838,17.446 265.695,14.59C267.284,13 278.971,13.553 281.759,13.553C282.502,13.553 285.951,13.081 286.423,13.553C288.237,15.367 291.346,15.885 293.16,17.699C296.19,20.728 299.721,24.26 303.006,27.545C303.44,27.979 303.035,30.165 303.525,30.655C305.887,33.017 305.69,43 303.525,45.165C301.97,46.719 302.488,50.347 300.933,51.902C298.342,54.493 296.788,58.12 294.197,60.711C292.663,62.245 290.314,62.003 289.014,63.302C287.978,64.339 283.832,62.266 282.796,63.302C282.191,63.907 279.573,65.375 278.65,65.375" style="fill:none;stroke:rgb(235,193,0);stroke-width:10.3px;"/>
    <path d="M274.504,77.294C272.952,77.294 271.913,81.294 271.913,83.513C271.913,87.017 275.964,93.454 272.95,96.468" style="fill:none;stroke:rgb(235,193,0);stroke-width:10.3px;"/>
    <path d="M262.067,75.74C260.626,75.74 260.254,78.071 259.476,78.849C257.195,81.13 254.413,86.903 252.739,90.25C252.457,90.814 252.667,92.394 252.221,92.841C251.399,93.662 249.63,95.087 249.63,96.987" style="fill:none;stroke:rgb(235,193,0);stroke-width:10.3px;"/>
    <path d="M247.039,66.412C246.129,66.412 245.38,68.589 244.966,69.003C243.757,70.212 243.066,71.939 241.857,73.148C241.425,73.58 242.288,75.308 241.857,75.74C240.129,77.467 240.993,81.785 239.265,83.513C238.379,84.399 235.12,86.791 235.12,88.177" style="fill:none;stroke:rgb(235,193,0);stroke-width:10.3px;"/>
    <path d="M202.472,67.448C204.355,63.682 205.846,60.965 209.209,57.602C210.418,56.393 213.182,56.738 214.391,55.529C216.896,53.024 226.915,58.034 229.419,55.529C230.53,54.419 239.586,49.31 241.338,49.31" style="fill:none;stroke:rgb(235,193,0);stroke-width:10.3px;"/>
    <path d="M242.375,29.618C242.375,31.713 239.515,32.478 238.747,33.246C235.038,36.955 225.231,38.903 220.61,34.282C219.087,32.76 214.156,34.047 212.836,32.727C210.046,29.937 202.863,35.319 201.954,35.319" style="fill:none;stroke:rgb(235,193,0);stroke-width:10.3px;"/>
    <path d="M207.136,8.889C209.472,8.889 210.651,11.368 211.8,12.517C214.261,14.978 217.099,15.743 219.573,18.217C220.591,19.236 224.268,18.736 225.792,18.736L242.893,18.736" style="fill:none;stroke:rgb(235,193,0);stroke-width:10.3px;"/>
    <path d="M259.476,9.926C259.476,8.87 256.44,7.926 255.848,7.335C253.205,4.691 241.857,2.627 241.857,-1.475" style="fill:none;stroke:rgb(235,193,0);stroke-width:10.3px;"/>
    <path d="M277.095,5.78C277.095,2.6 272.95,-0.566 272.95,-4.066" style="fill:none;stroke:rgb(235,193,0);stroke-width:10.3px;"/>
    <path d="M296.788,8.889C298.981,8.889 302.033,1.053 303.525,-0.439C304.278,-1.192 306.116,-2.726 306.116,-3.548" style="fill:none;stroke:rgb(235,193,0);stroke-width:10.3px;"/>
    <path d="M309.225,18.217C309.225,15.42 315.81,10.444 319.589,10.444" style="fill:none;stroke:rgb(235,193,0);stroke-width:10.3px;"/>
    <path d="M313.889,30.655C316.946,30.655 321.357,32.209 324.253,32.209" style="fill:none;stroke:rgb(235,193,0);stroke-width:10.3px;"/>
    <path d="M313.371,44.646C313.371,46.253 321.533,47.756 323.217,47.756" style="fill:none;stroke:rgb(235,193,0);stroke-width:10.3px;"/>
    <path d="M311.298,59.675C311.298,60.786 314.208,61.548 314.925,62.266C317.213,64.554 323.689,69.003 327.363,69.003" style="fill:none;stroke:rgb(235,193,0);stroke-width:10.3px;"/>
    <path d="M303.006,69.003C304.258,69.003 305.95,71.511 307.152,72.112C310.687,73.879 317.027,77.323 319.589,79.885C320.943,81.239 324.253,81.319 324.253,82.995" style="fill:none;stroke:rgb(235,193,0);stroke-width:10.3px;"/>
    <path d="M291.606,77.812C290.608,77.812 290.959,82.348 291.606,82.995C295.98,87.369 299.897,90.541 299.897,99.059" style="fill:none;stroke:rgb(235,193,0);stroke-width:10.3px;"/>
    <g transform="matrix(1,0,0,0.908088,0,29.4118)">
        <rect x="0" y="297.976" width="320" height="22.024" style="fill:rgb(0,102,36);"/>
    </g>
    <path d="M0.648,301.085C0.648,297.298 3.969,294.655 5.83,292.794C6.002,292.622 6.578,289.396 7.903,290.721C9.795,292.613 5.679,296.572 5.312,296.939C4.569,297.682 5.83,300.049 5.83,300.049C5.83,300.049 9.785,300.758 11.012,299.53C11.293,299.25 14.199,295.98 15.158,296.939C16.782,298.563 19.173,301.085 21.895,301.085" style="fill:none;stroke:rgb(0,102,36);stroke-width:6px;"/>
    <path d="M34.332,302.64C35.843,302.64 39.753,301.364 40.032,301.085C40.723,300.394 40.378,298.667 41.069,297.976C42.192,296.853 44.419,301.844 44.696,302.121C46.654,304.079 50.839,298.418 51.951,299.53C52.529,300.108 54.284,304.453 56.097,302.64C56.313,302.424 58.603,299.963 59.725,301.085C59.94,301.301 62.606,303.386 63.87,302.121C64.216,301.776 68.44,296.845 69.053,297.457C69.884,298.289 71.729,300.049 73.198,300.049C74.584,300.049 76.63,300.244 77.344,299.53C77.472,299.403 77.867,296.943 78.381,297.457C78.956,298.033 78.881,300.558 79.935,301.085C81.203,301.719 84.965,300.567 86.672,300.567" style="fill:none;stroke:rgb(0,102,36);stroke-width:6px;"/>
    <path d="M102.737,303.158C102.737,301.259 105.828,300.579 107.401,299.53C110.771,297.284 120.324,297.425 122.947,300.049C125.009,302.111 128.456,296.748 130.202,298.494C131.549,299.841 133.907,301.68 135.385,303.158C137.474,305.248 143.536,300.427 145.749,302.64C146.688,303.579 153.085,304.672 155.077,303.676C156.258,303.086 156.623,302.13 157.15,301.603C157.991,300.762 164.12,301.603 165.441,301.603C165.992,301.603 169.202,301.218 169.587,301.603C170.419,302.435 174.422,303.505 175.806,302.121C179.071,298.856 185.619,303.174 190.834,300.567C191.817,300.075 194.768,300.778 195.498,300.049C197.125,298.422 197.242,301.085 198.089,301.085C199.476,301.085 202.206,299.286 203.789,298.494C205.943,297.417 208.037,299.632 208.972,300.567C209.823,301.418 213.773,299.462 214.672,299.012C218.134,297.281 223.183,300.567 226.073,300.567C232.017,300.567 241.387,300.799 244.729,297.457C246.494,295.693 250.185,300.292 251.984,298.494C253.211,297.266 252.502,293.312 252.502,293.312C252.502,293.312 253.482,296.365 254.575,297.457C256.523,299.406 259.834,300.567 263.903,300.567" style="fill:none;stroke:rgb(0,102,36);stroke-width:6px;"/>
    <path d="M279.449,301.085C280.873,301.085 286.456,300.95 288.259,300.049C288.749,299.804 291.242,298.886 291.887,299.53C292.321,299.965 293.311,302.705 294.478,302.121C295.716,301.502 297.305,299.813 298.105,299.012C299.009,298.108 303.348,300.567 304.842,300.567C308.176,300.567 310.86,298.694 312.615,296.939C314.167,295.388 317.132,298.494 317.798,298.494" style="fill:none;stroke:rgb(0,102,36);stroke-width:6px;"/>
    <g transform="matrix(1,0,0,1,52.7288,-25.9109)">
        <circle cx="226.721" cy="64.259" r="29.15" style="fill:rgb(235,193,0);"/>
    </g>
    <path d="M246.154,15.676C243.533,15.676 220.896,12.359 219.433,11.628C217.313,10.567 207.759,5.96 207.287,5.96" style="fill:none;stroke:rgb(235,193,0);stroke-width:1.8px;"/>
    <path d="M240.486,28.632C240.486,39.768 223.776,35.404 219.433,31.061C217.375,29.003 204.007,34.3 200,34.3" style="fill:none;stroke:rgb(235,193,0);stroke-width:1.8px;"/>
    <path d="M240.486,50.494C232.98,50.494 228.135,56.162 221.862,56.162C219.301,56.162 210.124,54.135 208.907,55.352C207.994,56.265 206.478,60.385 206.478,61.83" style="fill:none;stroke:rgb(235,193,0);stroke-width:1.8px;"/>
    <path d="M251.012,62.64C247.653,62.64 242.09,69.133 240.486,70.737C238.327,72.896 242.645,81.533 240.486,83.692C238.816,85.362 235.383,85.029 233.198,86.121C231.723,86.859 230.814,88.551 229.15,88.551" style="fill:none;stroke:rgb(235,193,0);stroke-width:1.8px;"/>
    <path d="M261.538,73.166C261.538,79.959 256.422,83.951 252.632,87.741C250.642,89.731 254.125,96.648 255.061,96.648" style="fill:none;stroke:rgb(235,193,0);stroke-width:1.8px;"/>
    <path d="M273.684,75.595C267.454,75.595 275.956,87.583 276.113,87.741C278.559,90.186 272.874,94.719 272.874,95.838" style="fill:none;stroke:rgb(235,193,0);stroke-width:1.8px;"/>
    <path d="M289.879,73.976C289.879,79.017 293.332,83.907 296.356,86.931C298.675,89.25 293.228,94.329 295.547,96.648C296.418,97.52 298.709,97.457 300.405,97.457" style="fill:none;stroke:rgb(235,193,0);stroke-width:1.8px;"/>
    <path d="M301.215,69.117C303.636,69.117 312.952,81.263 314.98,81.263" style="fill:none;stroke:rgb(235,193,0);stroke-width:1.8px;"/>
    <path d="M310.931,58.591C316.136,58.591 315.101,62.64 321.457,62.64" style="fill:none;stroke:rgb(235,193,0);stroke-width:1.8px;"/>
    <path d="M313.36,44.826C316.774,44.826 319.582,43.206 323.887,43.206" style="fill:none;stroke:rgb(235,193,0);stroke-width:1.8px;"/>
    <path d="M314.17,31.061C319.599,31.061 323.054,31.87 327.935,31.87" style="fill:none;stroke:rgb(235,193,0);stroke-width:1.8px;"/>
    <path d="M310.931,19.725C310.931,14.413 316.79,10.818 321.457,10.818" style="fill:none;stroke:rgb(235,193,0);stroke-width:1.8px;"/>
    <path d="M301.215,6.769C301.215,-0.774 305.263,-5.248 305.263,-11.854" style="fill:none;stroke:rgb(235,193,0);stroke-width:1.8px;"/>
    <path d="M277.733,2.721C277.733,-0.997 265.103,-16.713 262.348,-16.713" style="fill:none;stroke:rgb(235,193,0);stroke-width:1.8px;"/>
    <path d="M259.919,5.96C259.919,2.95 236.972,-6.729 233.198,-8.615C231.013,-9.708 226.693,-13.474 225.911,-13.474" style="fill:none;stroke:rgb(235,193,0);stroke-width:1.8px;"/>
    <path d="M17.814,73.166C17.814,70.706 24.28,64.247 27.53,67.498C33.707,73.674 41.054,66.447 42.915,68.308C43.494,68.886 45.238,70.737 46.154,70.737" style="fill:none;stroke:black;stroke-width:1.8px;"/>
    <path d="M54.251,85.312C54.251,75.94 61.09,82.883 65.587,82.883C67.068,82.883 76.113,79.126 76.113,82.883" style="fill:none;stroke:black;stroke-width:1.8px;"/>
    <path d="M19.433,95.838C20.795,95.838 21.15,94.121 21.862,93.409C23.239,92.033 26.721,96.648 26.721,96.648C26.721,96.648 26.557,93.572 27.53,92.599C29.366,90.764 32.193,94.219 32.389,94.219" style="fill:none;stroke:black;stroke-width:1.8px;"/>
    <g transform="matrix(1,0,0,1,-3.10014,-4.31765)">
        <path d="M135.385,72.518C135.385,66.757 139.884,64.745 145.749,64.745C146.573,64.745 150.407,64.221 150.931,64.745C153.101,66.915 157.705,71.399 161.943,69.279C165.61,67.446 171.841,67.155 174.251,64.745C174.439,64.557 178.598,64.557 178.785,64.745C180.66,66.619 181.636,69.539 183.32,71.223C185.263,73.166 193.036,69.279 194.98,71.223C195.595,71.838 202.404,80.641 200.162,82.883C199.138,83.907 196.275,84.826 196.275,84.826C196.275,84.826 199.73,84.394 200.81,85.474C203.027,87.691 209.186,92.041 206.64,97.134C204.867,100.679 200.381,100.154 198.219,102.316C196.653,103.881 195.729,111.931 193.684,113.976C191.438,116.222 173.589,111.716 172.955,112.032C168.453,114.284 151.164,125.869 144.453,119.158C143.33,118.034 142.206,116.263 141.215,115.271C138.731,112.788 128.799,117.754 126.316,115.271C124.175,113.131 121.764,111.368 119.838,109.441C118.461,108.065 121.422,105.843 121.134,105.555C118.068,102.489 115.149,100.218 112.713,97.781C112.47,97.539 112.47,92.194 112.713,91.951C113.792,90.872 116.167,91.088 117.247,90.008C118.866,88.389 115.628,81.911 117.247,80.291C123.915,73.624 124.585,74.462 134.089,74.462" style="fill:white;stroke:white;stroke-width:5px;"/>
    </g>
    <g transform="matrix(1,0,0,1,-27.4124,-43.4619)">
        <path d="M44.696,161.263C44.696,156.858 46.05,154.08 47.935,152.194C50.088,150.041 61.916,153.219 62.834,154.138C63.802,155.106 64.554,157.153 65.425,158.024C66.564,159.163 74.437,151.49 77.733,154.785C79.531,156.584 80.11,158.458 81.619,159.968C82.699,161.047 79.892,163.422 80.972,164.502C81.619,165.15 83.563,164.502 84.211,165.15C84.723,165.663 89.054,172.614 86.802,174.866C85.081,176.587 80.532,175.954 79.028,177.457C78.057,178.429 80,182.316 79.028,183.287C77.733,184.583 75.142,184.583 73.846,185.879C72.036,187.689 61.976,182.745 58.3,184.583C56.558,185.454 44.93,189.351 43.401,187.822C41.046,185.467 39.613,180.148 39.514,180.049C37.598,178.132 34.013,179.082 32.389,177.457C31.864,176.933 32.389,173.099 32.389,172.275C32.389,162.718 43.401,167.24 43.401,161.263" style="fill:white;stroke:white;stroke-width:5px;"/>
    </g>
    <g transform="matrix(1,0,0,1,60.871,-30.2895)">
        <path d="M230.607,166.445C230.607,157.909 240.006,156.729 248.745,156.729C251.884,156.729 257.338,156.253 259.109,158.024C259.98,158.895 260.084,161.59 261.053,162.559C261.284,162.79 263.961,160.298 264.291,159.968C265.76,158.5 268.229,158.323 270.121,157.377C275.583,154.646 277.599,160.32 279.19,161.911C282.339,165.06 274.482,169.036 273.36,169.036C272.877,169.036 272.065,169.684 272.065,169.684L274.008,169.684C274.586,169.684 277.436,171.168 277.895,171.628C279.949,173.682 280.546,177.518 282.429,179.401C284.012,180.984 281.001,187.178 280.486,187.822C279.666,188.847 276.467,188.602 275.304,189.765C273.47,191.599 278.64,195.399 277.247,198.186C276.706,199.268 273.26,200.877 272.713,201.425C269.446,204.692 256.492,202.721 251.336,202.721C249.988,202.721 245.279,201.005 244.211,202.073C238.201,208.083 220.857,210.801 211.174,205.96C208.637,204.691 208.251,202.388 206.64,200.777C205.544,199.682 199.108,202.073 196.923,202.073C188.07,202.073 181.263,201.959 176.842,197.538C174.011,194.707 175.547,184.665 175.547,180.049C175.547,179.121 174.956,174.809 175.547,174.219C176.508,173.257 178.206,170.911 179.433,169.684C181.074,168.044 187.096,169.795 188.502,168.389C190.684,166.207 190.969,161.387 193.036,159.32C195.037,157.319 203.58,159.733 205.344,160.615C208.342,162.114 216.177,162.738 218.947,159.968C219.244,159.671 225.776,159.671 226.073,159.968C227.078,160.973 230.374,164.502 231.903,164.502" style="fill:white;stroke:white;stroke-width:5px;"/>
    </g>
</svg>
