<?xml version="1.0" encoding="UTF-8" standalone="no"?>
<!DOCTYPE svg PUBLIC "-//W3C//DTD SVG 1.1//EN" "http://www.w3.org/Graphics/SVG/1.1/DTD/svg11.dtd">
<svg width="100%" height="100%" viewBox="0 0 20 20" version="1.1" xmlns="http://www.w3.org/2000/svg" xmlns:xlink="http://www.w3.org/1999/xlink" xml:space="preserve" xmlns:serif="http://www.serif.com/" style="fill-rule:evenodd;clip-rule:evenodd;stroke-linecap:round;stroke-linejoin:round;stroke-miterlimit:1.5;">
    <g transform="matrix(1,0,0,1,-0.193928,0.437855)">
        <path d="M10.233,16.498C10.233,13.084 10.078,9.517 10.078,6.109C10.078,5.221 10.156,4.394 10.156,3.502C10.156,3.365 10.242,2.733 10.156,2.646C10.074,2.565 9.866,2.759 9.844,2.802C9.766,2.958 9.331,3.311 9.105,3.424C7.962,3.996 6.856,5.089 5.953,5.992C5.61,6.336 5.319,6.821 5.019,7.121C5,7.14 4.801,7.37 4.786,7.354C4.767,7.335 4.962,7.061 4.981,7.043C5.223,6.801 5.484,6.5 5.798,6.187C5.861,6.123 5.922,5.969 6.031,5.914C6.163,5.849 6.204,5.702 6.304,5.642C6.602,5.461 7.057,4.928 7.315,4.669C7.457,4.528 7.833,4.372 8.016,4.28C8.373,4.101 8.787,3.82 9.027,3.58C9.199,3.408 9.514,3.336 9.728,3.23C10.03,3.079 10.226,2.887 10.389,2.724C10.443,2.67 10.616,2.834 10.623,2.84C10.827,3.045 11.14,3.241 11.362,3.463C11.859,3.96 12.745,4.359 13.385,4.786C13.575,4.912 13.818,4.925 14.008,5.019C14.462,5.247 14.966,5.472 15.292,5.798C15.335,5.841 15.603,6.005 15.603,6.07" style="fill:none;stroke:black;stroke-width:1.8px;"/>
    </g>
</svg>
