<?xml version="1.0" encoding="UTF-8" standalone="no"?>
<!DOCTYPE svg PUBLIC "-//W3C//DTD SVG 1.1//EN" "http://www.w3.org/Graphics/SVG/1.1/DTD/svg11.dtd">
<svg width="100%" height="100%" viewBox="0 0 20 20" version="1.1" xmlns="http://www.w3.org/2000/svg" xmlns:xlink="http://www.w3.org/1999/xlink" xml:space="preserve" xmlns:serif="http://www.serif.com/" style="fill-rule:evenodd;clip-rule:evenodd;stroke-linecap:round;stroke-linejoin:round;stroke-miterlimit:1.5;">
    <g transform="matrix(1,0,0,1,-0.180552,0.222672)">
        <path d="M15.506,2.915C15.38,2.915 15.241,3.18 15.182,3.239C15.067,3.354 14.771,3.286 14.656,3.401C14.258,3.799 13.406,4.086 12.753,4.413C12.523,4.528 12.11,4.611 11.903,4.818C11.737,4.983 11.404,5.33 11.134,5.466C10.745,5.66 10.203,5.91 9.96,6.154C9.887,6.226 9.679,6.232 9.595,6.316C9.135,6.776 8.311,6.911 7.854,7.368C7.785,7.438 7.61,7.45 7.53,7.49C7.154,7.678 6.758,7.775 6.356,7.976C5.659,8.324 5.054,8.549 4.615,8.988C4.494,9.11 4.234,9.045 4.13,9.15C4.113,9.166 4.162,9.344 4.17,9.352C4.318,9.5 4.469,9.765 4.696,9.879C4.761,9.911 4.874,10.089 4.939,10.121C5.45,10.377 5.898,10.783 6.437,11.053C6.552,11.11 6.889,11.269 6.964,11.417C7,11.489 7.19,11.595 7.287,11.66C7.437,11.76 7.638,11.97 7.733,12.065C7.887,12.219 8.141,12.271 8.259,12.389C8.618,12.748 9.221,13.098 9.798,13.482C10.068,13.662 10.376,13.696 10.567,13.887C10.826,14.146 11.3,14.174 11.538,14.413C11.672,14.547 12.022,14.532 12.146,14.656C12.4,14.91 12.981,15.005 13.279,15.304C13.475,15.499 14.021,15.553 14.251,15.668C14.317,15.701 14.445,15.66 14.494,15.709C14.63,15.844 14.947,15.838 15.101,15.992C15.298,16.188 15.892,16.64 16.235,16.64" style="fill:none;stroke:black;stroke-width:1.8px;"/>
    </g>
</svg>
