<?xml version="1.0" encoding="UTF-8" standalone="no"?>
<!DOCTYPE svg PUBLIC "-//W3C//DTD SVG 1.1//EN" "http://www.w3.org/Graphics/SVG/1.1/DTD/svg11.dtd">
<svg width="100%" height="100%" viewBox="0 0 64 64" version="1.1" xmlns="http://www.w3.org/2000/svg" xmlns:xlink="http://www.w3.org/1999/xlink" xml:space="preserve" xmlns:serif="http://www.serif.com/" style="fill-rule:evenodd;clip-rule:evenodd;stroke-linecap:round;stroke-linejoin:round;stroke-miterlimit:1.5;">
    <g transform="matrix(0.948701,0,0,0.948701,1.90874,1.90874)">
        <circle cx="31.718" cy="31.718" r="31.718" style="fill:rgb(99,255,54);stroke:black;stroke-width:0.8px;"/>
    </g>
    <path d="M15.228,20.443C15.228,20.265 15.612,20.06 15.729,19.943C16.015,19.657 16.707,18.953 17.064,18.774C17.525,18.544 18.2,18.389 18.566,18.023C19.497,17.093 20.804,16.286 21.653,15.437C21.762,15.328 22.157,15.607 22.237,15.687C22.519,15.968 22.876,16.242 23.239,16.605C24.197,17.564 25.53,18.6 26.076,19.692C26.205,19.952 26.993,20.228 26.993,20.443" style="fill:none;stroke:black;stroke-width:0.76px;"/>
    <path d="M38.842,20.61C39.275,20.177 39.45,19.501 39.927,19.025C40.487,18.465 41.142,17.962 41.596,17.356C42.168,16.593 43.242,16.317 43.682,15.437C43.915,14.97 44.59,14.862 44.85,14.602C44.874,14.578 45.41,14.578 45.434,14.602C46.152,15.32 47.418,15.926 48.188,16.688C48.66,17.157 49.4,18.004 49.94,18.274C50.598,18.603 50.996,19.943 51.525,19.943" style="fill:none;stroke:black;stroke-width:0.76px;"/>
    <path d="M31.917,22.362C31.917,24.349 30.949,25.583 29.831,26.701C29.643,26.889 29.583,27.283 29.413,27.452C28.494,28.372 27.97,29.396 27.16,30.206C27.117,30.249 27.12,30.497 27.077,30.54C26.418,31.198 25.637,33.189 26.493,34.044C27.022,34.574 28.17,35 29.08,34.545C29.499,34.335 29.915,34.211 30.415,34.211C30.494,34.211 30.865,34.161 30.915,34.211C31.762,35.058 32.641,35.296 34.336,35.296C35.299,35.296 36.164,35.3 36.84,34.962C37.231,34.766 37.927,34.211 38.175,34.211" style="fill:none;stroke:black;stroke-width:0.76px;"/>
    <path d="M17.236,45.196C18.361,45.196 20.563,44.313 21.473,43.403C22.084,42.792 23.708,43.019 24.57,42.588C24.81,42.468 25.528,42.771 25.711,42.588C26.537,41.762 30.484,42.635 30.926,43.077C31.292,43.443 32.387,43.234 32.718,43.566C32.813,43.661 34.905,43.661 35,43.566C35.219,43.347 36.06,43.484 36.304,43.24C37.279,42.265 39.752,42.563 40.704,41.61C40.935,41.379 42.622,41.61 42.986,41.61C44.25,41.61 47.447,41.182 48.201,41.936C48.65,42.385 50.069,42.011 50.482,42.425C50.691,42.633 49.768,42.588 49.668,42.588C49.338,42.588 48.868,42.743 48.527,42.914C47.512,43.421 45.969,43.679 45.43,44.218C45.131,44.517 44.099,44.082 43.801,44.381C42.919,45.263 40.877,44.538 39.563,45.196C39.031,45.462 37.704,45.522 37.119,45.522C36.988,45.522 36.086,45.413 35.978,45.522C35.565,45.934 34.608,45.392 34.022,45.684C33.478,45.956 32.715,45.847 32.066,45.847C30.509,45.847 27.696,46.351 26.362,45.684C25.982,45.494 25.004,45.684 24.57,45.684C23.538,45.684 20.714,45.577 20.169,45.033C20.096,44.959 18.719,44.87 18.703,44.87L17.888,44.87C17.888,44.87 19.368,44.883 19.844,45.359C20.589,46.104 22.639,45.71 23.429,46.499C23.673,46.744 24.488,46.418 24.733,46.662C25.33,47.26 26.743,47.043 27.34,47.64C27.634,47.933 28.86,47.53 29.133,47.803C29.65,48.32 31.43,47.655 31.904,48.129C32.376,48.601 34.646,48.292 35.489,48.292C36.957,48.292 38.653,48.225 39.4,47.477C39.808,47.07 40.786,47.233 41.193,46.825C41.746,46.272 43.091,46.394 43.801,45.684C44.099,45.386 45.131,45.82 45.43,45.522C46.769,44.183 50.482,45.053 50.482,42.425" style="fill:none;stroke:black;stroke-width:0.76px;"/>
    <path d="M8.761,32.647C9.661,32.647 9.795,33.354 10.228,33.787C11.679,35.238 11.043,38.037 11.043,40.632C11.043,41.314 11.532,42.274 11.532,42.914" style="fill:none;stroke:black;stroke-width:0.76px;"/>
    <path d="M56.675,31.343C56.442,31.343 55.357,31.194 55.209,31.343C53.908,32.643 53.253,35.63 53.253,37.699C53.253,38.49 52.977,40.519 53.416,40.958C53.623,41.165 53.137,41.773 53.579,41.773" style="fill:none;stroke:black;stroke-width:0.76px;"/>
    <path d="M29.785,55.789C29.785,55.39 31.691,55.35 31.904,55.137C32.175,54.865 32.773,54.92 33.044,54.648C33.234,54.458 33.995,54.838 34.185,54.648C34.492,54.341 35.557,54.485 36.141,54.485C37.708,54.485 38.665,55.463 40.215,55.463" style="fill:none;stroke:black;stroke-width:0.76px;"/>
</svg>
