<?xml version="1.0" encoding="UTF-8" standalone="no"?>
<!DOCTYPE svg PUBLIC "-//W3C//DTD SVG 1.1//EN" "http://www.w3.org/Graphics/SVG/1.1/DTD/svg11.dtd">
<svg width="100%" height="100%" viewBox="0 0 64 64" version="1.1" xmlns="http://www.w3.org/2000/svg" xmlns:xlink="http://www.w3.org/1999/xlink" xml:space="preserve" xmlns:serif="http://www.serif.com/" style="fill-rule:evenodd;clip-rule:evenodd;stroke-linecap:round;stroke-linejoin:round;stroke-miterlimit:1.5;">
    <path d="M2.615,59.642C2.615,58.151 2.366,56.467 2.366,54.786C2.366,54.301 2.23,53.303 2.49,53.043C2.767,52.766 2.557,51.856 2.864,51.549C3.072,51.34 3.013,50.652 3.237,50.428C3.582,50.084 3.492,48.798 3.735,48.311C4.112,47.559 3.599,45.708 4.109,45.198C4.316,44.991 4.026,44.285 4.233,44.078C4.441,43.87 4.15,43.165 4.358,42.957C4.582,42.733 4.274,41.796 4.482,41.588C4.649,41.422 4.441,40.882 4.607,40.716C5.378,39.945 4.635,37.824 5.354,37.105C5.669,36.791 5.623,35.197 5.852,34.739C5.917,34.609 5.753,34.216 5.852,34.117C6.163,33.806 5.996,32.977 6.35,32.623C7.211,31.762 7.095,30.259 7.969,29.385C9.021,28.333 9.651,26.831 10.833,25.65C13.235,23.247 15.765,20.967 18.179,18.553C19.978,16.754 21.218,14.891 22.911,13.198C23.979,12.13 24.626,10.985 25.65,9.961C26.585,9.026 28.406,8.699 29.261,7.844C29.385,7.72 29.759,7.844 29.883,7.72C30.758,6.846 32.58,6.891 33.494,5.977C33.868,5.602 34.665,5.802 34.988,5.479C35.165,5.302 36.454,5.479 36.732,5.479C37.548,5.479 38.812,5.567 39.222,5.977C39.444,6.199 40.356,6.114 40.591,6.35C40.744,6.503 41.279,6.416 41.463,6.599C42.174,7.31 43.397,7.786 44.202,8.591C44.819,9.208 44.924,10.434 45.447,10.957C46.746,12.256 47.191,15.721 47.191,18.054C47.191,19.773 47.066,21.339 47.066,23.035C47.066,23.293 46.902,24.49 47.066,24.654C47.784,25.371 47.354,27.432 48.062,28.14C48.332,28.41 47.917,29.364 48.187,29.634C48.586,30.034 48.608,30.975 48.934,31.626C49.004,31.766 48.963,32.278 49.058,32.374C49.388,32.703 49.476,33.538 49.805,33.868C50.692,34.754 51.093,36.318 51.673,37.479C52.706,39.544 53.911,41.709 55.409,43.206C55.755,43.553 55.939,44.235 56.28,44.576C56.551,44.846 56.763,45.665 56.903,45.946C57.566,47.272 58.73,49.142 59.767,50.179C60.504,50.917 60.741,53.021 61.51,53.79C61.713,53.993 61.555,54.832 61.759,55.035C62.359,55.635 62.506,57.68 62.506,58.895C62.506,59.093 62.632,60.014 62.506,60.14C62.234,60.412 61.912,60.858 61.634,61.136C61.364,61.406 60.285,60.866 60.016,61.136C59.754,61.397 59.267,61.075 58.895,61.261C58.069,61.673 56.839,61.231 56.031,61.634C55.304,61.998 54.51,61.772 53.79,62.132C52.786,62.634 51.332,62.506 49.93,62.506C47.453,62.506 45.277,62.132 42.584,62.132C41.101,62.132 39.564,62.879 37.728,62.879C37.335,62.879 36.452,63.051 36.109,62.879C35.702,62.676 35.312,62.73 34.864,62.506C34.68,62.414 34.132,62.645 33.992,62.506C33.702,62.215 32.789,62.547 32.498,62.257C32.311,62.07 31.689,62.319 31.502,62.132C31.076,61.706 29.01,61.759 28.265,61.759C27.669,61.759 25.762,61.522 25.401,61.883C24.923,62.361 23.139,61.53 22.661,62.008C22.327,62.342 21.173,61.877 20.794,62.257C20.572,62.478 20.242,62.221 19.922,62.381C18.727,62.979 15.672,62.489 15.066,61.883C14.72,61.538 13.987,61.8 13.696,61.51C13.421,61.234 12.132,61.385 11.704,61.385C10.407,61.385 8.944,62.132 7.346,62.132C6.969,62.132 5.221,61.892 4.981,62.132C4.792,62.321 2.66,63.049 2.241,62.63C1.36,61.749 1.832,60.212 2.366,59.144C2.649,58.578 2.49,57.262 2.49,56.654" style="fill:rgb(242,53,53);stroke:black;stroke-width:1px;"/>
    <path d="M38.475,17.556C38.475,17.169 40.4,16.493 40.84,16.934C41.237,17.331 41.934,17.653 42.335,18.054C43.041,18.761 42.957,20.666 42.957,22.039C42.957,22.376 43.172,23.941 42.957,24.156C42.77,24.342 42.895,24.84 42.708,25.027C42.376,25.359 42.169,25.816 41.837,26.148C40.938,27.047 39.843,25.773 39.471,25.401C39.329,25.259 39.341,24.773 39.222,24.654C39.056,24.488 39.014,24.197 38.848,24.031C38.724,23.907 38.973,23.409 38.848,23.284C38.528,22.964 38.599,22.173 38.599,21.541C38.599,20.079 38.848,18.688 38.848,17.432" style="fill:none;stroke:black;stroke-width:1px;"/>
    <path d="M39.595,23.782C39.906,23.782 41.102,22.549 41.712,23.16C41.816,23.263 43.208,24.154 42.459,24.903C41.845,25.517 40.893,25.63 40.467,24.778C40.38,24.603 40.018,23.609 40.218,23.409C40.906,22.72 42.193,24.297 41.588,24.903C41.379,25.111 40.973,25.272 40.716,25.401C40.592,25.463 40.199,25.88 39.969,25.65C39.907,25.588 39.702,24.423 39.844,24.28C39.945,24.179 40.682,24.28 40.84,24.28C40.959,24.28 41.512,24.205 41.588,24.28C42.16,24.853 41.434,25.994 40.84,25.401C40.324,24.884 41.214,24.137 41.214,24.778" style="fill:none;stroke:black;stroke-width:1px;"/>
    <path d="M36.607,13.821C38.231,13.821 39.829,14.428 40.591,15.191C41.083,15.682 42.138,15.616 42.584,16.062C42.788,16.267 44.202,16.388 44.202,16.685" style="fill:none;stroke:black;stroke-width:1px;"/>
    <path d="M47.191,28.265C47.191,28.856 45.872,28.711 45.572,29.012C45.191,29.392 44.09,29.385 43.331,29.385C43.172,29.385 42.435,29.284 42.335,29.385C41.899,29.821 40.28,29.074 39.844,29.51C39.338,30.016 38.283,29.95 37.728,30.506C37.285,30.948 36.561,33.075 37.354,33.868C37.953,34.467 39,34.642 39.595,35.237C40.306,35.948 40.349,37.236 41.089,37.977C41.472,38.359 41.952,38.715 42.335,39.097C42.635,39.397 43.354,39.245 43.704,39.595C43.85,39.741 44.431,39.45 44.576,39.595C44.886,39.906 46.252,39.72 46.817,39.72C48.284,39.72 50.161,39.346 52.047,39.346" style="fill:none;stroke:black;stroke-width:1px;"/>
    <path d="M50.428,39.097C50.428,38.614 49.579,37.875 49.307,37.603C48.964,37.26 48.809,36.233 48.809,36.233C48.809,36.233 48.921,36.758 48.809,36.981C48.566,37.467 48.5,38.161 48.187,38.475C48.178,38.484 47.98,38.934 47.938,38.848C47.654,38.281 47.525,37.315 47.066,36.856C46.945,36.734 46.988,35.962 46.693,36.109C46.45,36.23 46.587,36.712 46.444,36.856C45.813,37.486 45.804,38.118 45.198,38.724C44.878,39.044 44.739,38.389 44.7,38.35C44.633,38.282 44.041,36.875 43.829,36.981C42.99,37.4 42.765,38.724 41.961,38.724" style="fill:none;stroke:black;stroke-width:1px;"/>
    <path d="M40.093,30.257C40.539,30.257 41.081,32.133 41.339,31.875C41.753,31.461 41.786,29.547 42.708,30.008C43.13,30.219 44.573,31.505 44.576,31.502C44.995,31.083 44.86,30.097 45.323,29.634C45.542,29.415 46.638,31.074 46.693,31.128C46.849,31.285 47.041,30.905 47.066,30.879C47.191,30.755 47.066,30.381 47.191,30.257C47.379,30.069 47.938,29.292 47.938,29.012" style="fill:none;stroke:black;stroke-width:1px;"/>
    <path d="M24.654,34.615C24.654,33.44 25.125,32.872 26.272,32.872C26.563,32.872 27.069,32.797 27.268,32.996C27.845,33.573 28.297,34.647 28.887,35.237C29.066,35.416 28.999,36.333 29.136,36.607C29.859,38.053 28.412,40.615 29.51,41.712C30.404,42.606 32.256,42.587 33.494,43.206C33.909,43.414 34.703,43.17 34.988,43.455C35.403,43.87 35.943,44.161 36.358,44.576C36.726,44.944 36.668,45.509 36.981,45.821C37.482,46.322 37.785,47.881 37.105,48.56C36.898,48.768 36.192,48.477 35.984,48.685C35.756,48.913 34.968,48.581 34.739,48.809C34.138,49.41 32.793,48.786 32,49.183C30.648,49.859 28.372,49.112 27.518,48.685C24.663,47.258 23.907,44.351 23.907,40.342C23.907,39.706 23.782,38.68 23.782,37.852C23.782,37.734 23.707,37.18 23.782,37.105C24.183,36.704 24.156,35.267 24.156,34.49" style="fill:none;stroke:black;stroke-width:1px;"/>
</svg>
