<?xml version="1.0" encoding="UTF-8" standalone="no"?>
<!DOCTYPE svg PUBLIC "-//W3C//DTD SVG 1.1//EN" "http://www.w3.org/Graphics/SVG/1.1/DTD/svg11.dtd">
<svg width="100%" height="100%" viewBox="0 0 20 20" version="1.1" xmlns="http://www.w3.org/2000/svg" xmlns:xlink="http://www.w3.org/1999/xlink" xml:space="preserve" xmlns:serif="http://www.serif.com/" style="fill-rule:evenodd;clip-rule:evenodd;stroke-linecap:round;stroke-linejoin:round;stroke-miterlimit:1.5;">
    <g transform="matrix(1,0,0,1,0.420318,0)">
        <path d="M3.774,3.346C4.27,3.346 4.613,3.692 5.097,3.813C5.999,4.039 6.754,4.583 7.549,4.981C7.906,5.159 8.152,5.496 8.521,5.681C8.712,5.776 8.831,6.014 9.027,6.148C9.834,6.698 10.829,7.051 11.634,7.588C12.177,7.949 12.753,8.264 13.346,8.56C13.881,8.828 14.687,9.006 15.019,9.339C15.091,9.41 15.298,9.345 15.37,9.416C15.452,9.498 15.184,9.957 15.097,10C14.4,10.348 13.534,10.976 12.685,11.401C11.299,12.094 10.466,12.945 9.222,13.774C9.051,13.888 8.775,13.968 8.599,14.086C8.261,14.311 7.973,14.619 7.588,14.747C7.166,14.888 6.64,15.041 6.265,15.292C5.974,15.485 5.629,15.532 5.331,15.681C5.136,15.778 4.834,16.027 4.669,16.109C4.403,16.242 3.93,16.386 3.93,16.654" style="fill:none;stroke:black;stroke-width:1.8px;"/>
    </g>
</svg>
